<?xml version="1.0" standalone="no"?><!DOCTYPE svg PUBLIC "-//W3C//DTD SVG 1.1//EN" "http://www.w3.org/Graphics/SVG/1.1/DTD/svg11.dtd"><svg t="1545270454283" class="icon" style="" viewBox="0 0 1024 1024" version="1.1" xmlns="http://www.w3.org/2000/svg" p-id="2894" xmlns:xlink="http://www.w3.org/1999/xlink" width="200" height="200"><defs><style type="text/css"></style></defs><path d="M0 0h520.126984v520.126984H0z" fill="#F7F7F7" p-id="2895"></path><path d="M455.111111 623.068783c0-29.923556-24.256339-54.179894-54.179894-54.179894s-54.179894 24.256339-54.179894 54.179894c0-77.79691-63.070815-140.867725-140.867725-140.867725s-140.867725 63.070815-140.867725 140.867725c-29.923556 0-54.179894 24.256339-54.179894 54.179894s24.256339 54.179894 54.179894 54.179894h390.095238c29.923556 0 54.179894-24.256339 54.179894-54.179894s-24.256339-54.179894-54.179894-54.179894" fill="#AAE1ED" p-id="2896"></path><path d="M314.243386 227.555556c0-29.923556 24.256339-54.179894 54.179894-54.179895h59.597884a27.089947 27.089947 0 0 0 0-54.179894h-37.925926a27.089947 27.089947 0 0 1 0-54.179894h92.10582a27.089947 27.089947 0 0 0 0-54.179894H108.359788a27.089947 27.089947 0 0 0 0 54.179894h124.613757a27.089947 27.089947 0 0 1 0 54.179894H162.539683a27.089947 27.089947 0 0 0 0 54.179894h97.523809c29.923556 0 54.179894 24.256339 54.179894 54.179895" fill="#83EF60" p-id="2897"></path><path d="M314.243386 238.391534a10.835979 10.835979 0 0 1-10.835979-10.835978c0-23.898751-19.445164-43.343915-43.343915-43.343916H162.539683c-20.908021 0-37.925926-17.017905-37.925926-37.925926s17.017905-37.925926 37.925926-37.925926h70.433862c8.961354 0 16.253968-7.292614 16.253968-16.253968s-7.292614-16.253968-16.253968-16.253968H108.359788c-20.908021 0-37.925926-17.017905-37.925926-37.925926s17.017905-37.925926 37.925926-37.925926h373.84127c20.908021 0 37.925926 17.017905 37.925926 37.925926s-17.017905 37.925926-37.925926 37.925926H390.095238c-8.961354 0-16.253968 7.292614-16.253968 16.253968s7.292614 16.253968 16.253968 16.253968h37.925926c20.908021 0 37.925926 17.017905 37.925926 37.925926s-17.017905 37.925926-37.925926 37.925926H368.42328c-23.898751 0-43.343915 19.445164-43.343915 43.343916a10.835979 10.835979 0 0 1-10.835979 10.835978M162.539683 130.031746c-8.961354 0-16.253968 7.292614-16.253969 16.253968s7.292614 16.253968 16.253969 16.253969h97.523809c22.587598 0 42.525799 11.578243 54.179894 29.110857C325.897481 174.117926 345.835683 162.539683 368.42328 162.539683h59.597884c8.961354 0 16.253968-7.292614 16.253968-16.253969s-7.292614-16.253968-16.253968-16.253968h-37.925926c-20.908021 0-37.925926-17.017905-37.925926-37.925926s17.017905-37.925926 37.925926-37.925926h92.10582c8.961354 0 16.253968-7.292614 16.253968-16.253968s-7.292614-16.253968-16.253968-16.253968H108.359788c-8.961354 0-16.253968 7.292614-16.253968 16.253968s7.292614 16.253968 16.253968 16.253968h124.613757c20.908021 0 37.925926 17.017905 37.925926 37.925926s-17.017905 37.925926-37.925926 37.925926H162.539683z" fill="#2D4D68" p-id="2898"></path><path d="M10.835979 260.063492h498.455026v249.227513H10.835979z" fill="#567B8E" p-id="2899"></path><path d="M10.835979 184.21164h498.455026v249.227513H10.835979z" fill="#A8C4C6" p-id="2900"></path><path d="M303.407407 216.719577h21.671958v43.343915h-21.671958z" fill="#2D4D68" p-id="2901"></path><path d="M254.645503 449.693122a10.835979 10.835979 0 0 1-7.661037-18.497016L298.921312 379.259259l-51.936846-51.936846a10.835979 10.835979 0 0 1 0-15.322074l59.597883-59.597884a10.835979 10.835979 0 1 1 15.322074 15.322074L269.967577 319.661376l51.936846 51.936846a10.835979 10.835979 0 0 1 0 15.322074l-59.597883 59.597884A10.792635 10.792635 0 0 1 254.645503 449.693122M65.015873 260.063492h21.671958v249.227513h-21.671958zM433.439153 260.063492h21.671958v249.227513h-21.671958z" fill="#2D4D68" p-id="2902"></path><path d="M509.291005 520.126984H10.835979a10.835979 10.835979 0 0 1-10.835979-10.835979V260.063492a10.835979 10.835979 0 0 1 10.835979-10.835979h498.455026a10.835979 10.835979 0 0 1 10.835979 10.835979v249.227513a10.835979 10.835979 0 0 1-10.835979 10.835979M21.671958 498.455026h476.783068V270.899471H21.671958v227.555555z" fill="#2D4D68" p-id="2903"></path></svg>