<?xml version="1.0" standalone="no"?><!DOCTYPE svg PUBLIC "-//W3C//DTD SVG 1.1//EN" "http://www.w3.org/Graphics/SVG/1.1/DTD/svg11.dtd"><svg t="1545270421706" class="icon" style="" viewBox="0 0 1024 1024" version="1.1" xmlns="http://www.w3.org/2000/svg" p-id="2086" xmlns:xlink="http://www.w3.org/1999/xlink" width="200" height="200"><defs><style type="text/css"></style></defs><path d="M512 664.977939C427.501813 664.977939 359.012502 596.488629 359.012502 512 359.012502 427.501813 427.501813 359.012502 512 359.012502 596.488629 359.012502 664.987501 427.501813 664.987501 512 664.987501 596.488629 596.488629 664.977939 512 664.977939M883.539699 397.319111 810.825958 388.220335 855.813286 330.368563C885.680589 300.510816 885.680589 252.10189 855.813286 222.234586L801.755859 168.186714C771.898112 138.328967 723.489184 138.328967 693.631437 168.186714L635.770107 213.183599 626.680889 140.460298C626.680889 98.235098 592.455348 64 550.220591 64L473.779409 64C431.554209 64 397.319111 98.235098 397.319111 140.460298L388.229893 213.183599 330.37812 168.186714C300.520374 138.328967 252.111448 138.319409 222.253701 168.186714L168.186714 222.234586C138.328967 252.092333 138.338525 300.510816 168.186714 330.368563L213.193156 388.220335 140.460298 397.319111C98.235098 397.319111 64 431.544652 64 473.779409L64 550.220591C64 592.445791 98.235098 626.680889 140.460298 626.680889L213.193156 635.770107 168.186714 693.621882C138.338525 723.479629 138.328967 771.88855 168.186714 801.755859L222.253701 855.803731C252.10189 885.661478 300.520374 885.661478 330.37812 855.803731L388.229893 810.816403 397.319111 883.530144C397.319111 925.755347 431.544652 959.990445 473.779409 959.990445L550.220591 959.990445C592.445791 959.990445 626.680889 925.755347 626.680889 883.530144L635.770107 810.806842 693.621882 855.79417C723.479629 885.651917 771.88855 885.661478 801.746298 855.803731L855.813286 801.746298C885.661478 771.898112 885.661478 723.470067 855.813286 693.61232L810.816403 635.770107 883.539699 626.680889C925.764902 626.680889 960 592.455348 960 550.220591L960 473.779409C960 431.554209 925.764902 397.319111 883.539699 397.319111" p-id="2087"></path></svg>